<?xml version="1.0" encoding="iso-8859-1"?>
<!-- Generator: Adobe Illustrator 19.0.0, SVG Export Plug-In . SVG Version: 6.00 Build 0)  -->
<svg xmlns="http://www.w3.org/2000/svg" xmlns:xlink="http://www.w3.org/1999/xlink" version="1.1" id="Capa_1" x="0px" y="0px" viewBox="0 0 480 480" style="enable-background:new 0 0 480 480;" xml:space="preserve" width="512px" height="512px">
<g>
	<g>
		<path d="M472,192c-48.577-0.057-87.943-39.423-88-88V8c0-4.418-3.582-8-8-8h-56c-3.047-0.017-5.838,1.699-7.2,4.424l-6.296,12.592    l-26.624,5.92c-26.297,5.8-53.543,5.8-79.84,0l-26.624-5.92L167.2,4.424C165.838,1.699,163.047-0.016,160,0h-56    c-4.418,0-8,3.582-8,8v96c-0.057,48.577-39.423,87.943-88,88c-4.418,0-8,3.582-8,8v272c0,4.418,3.582,8,8,8h168    c26.995-0.036,51.702-15.169,64-39.2c12.298,24.031,37.005,39.164,64,39.2h168c4.418,0,8-3.582,8-8V200    C480,195.582,476.418,192,472,192z M176,464H16v-48h215.36C227.387,443.528,203.813,463.968,176,464z M232,400H16v-32h216V400z     M232,352H16v-32h216V352z M232,304H16v-32h216V304z M232,256H16v-48.408c54.121-4.206,95.917-49.308,96-103.592V16h43.056    L232,169.888V256z M182.672,35.456l13.944,3.096c14.246,3.153,28.793,4.742,43.384,4.736c14.591,0.006,29.138-1.583,43.384-4.736    l13.944-3.096L240,150.112L182.672,35.456z M464,464H304c-27.813-0.033-51.387-20.473-55.36-48H464V464z M464,400H248v-32h216V400    z M464,352H248v-32h216V352z M464,304H248v-32h216V304z M464,256H248v-86.112L324.944,16H368v88    c0.083,54.284,41.879,99.386,96,103.592V256z" fill="#e36a2c"/>
	</g>
</g>
<g>
</g>
<g>
</g>
<g>
</g>
<g>
</g>
<g>
</g>
<g>
</g>
<g>
</g>
<g>
</g>
<g>
</g>
<g>
</g>
<g>
</g>
<g>
</g>
<g>
</g>
<g>
</g>
<g>
</g>
</svg>
